# xmcd
#
# Track frame offsets: 
#        150
#        24585
#        43530
#        68000
#        117600
#        139670
#        167655
#        194475
#        228855
#        290045
#        307950
#
# Disc length: 4347 seconds
#
# Revision: 1
# Processed by: cddbd v1.5.2PL0 Copyright (c) Steve Scherf et al.
# Submitted via: ExactAudioCopy v0.99pb5
#
DISCID=9a10f90b
DTITLE=Stevie Ray Vaughan - Boogie with Stevie [Disc 1]
DYEAR=2007
DGENRE=Electric Blues
TTITLE0=Say what
TTITLE1=Lookin out the window
TTITLE2=Look out little sister
TTITLE3=Ain't gone and giving up
TTITLE4=Superstition
TTITLE5=Willie the wimp
TTITLE6=Cold shot
TTITLE7=Coulden't stand the weather
TTITLE8=Life without you
TTITLE9=Love struck baby
TTITLE10=Rude mood
EXTD=
EXTT0=
EXTT1=
EXTT2=
EXTT3=
EXTT4=
EXTT5=
EXTT6=
EXTT7=
EXTT8=
EXTT9=
EXTT10=
PLAYORDER=
